<svg data-v-0dd9719b="" version="1.0" xmlns="http://www.w3.org/2000/svg" xmlns:xlink="http://www.w3.org/1999/xlink" width="100%" height="100%" viewBox="0 0 340.000000 250.000000" preserveAspectRatio="xMidYMid meet" color-interpolation-filters="sRGB" style="margin: auto;"> <rect data-v-0dd9719b="" x="0" y="0" width="100%" height="100%" fill="#fff" fill-opacity="1" class="background"></rect> <rect data-v-0dd9719b="" x="0" y="0" width="100%" height="100%" fill="url(#watermark)" fill-opacity="1" class="watermarklayer"></rect> <g data-v-0dd9719b="" fill="#333" class="icon-text-wrapper icon-svg-group iconsvg" transform="translate(50.280006408691406,94.8946304321289)"><g class="iconsvg-imagesvg" transform="translate(0,0)"><g><rect fill="#333" fill-opacity="0" stroke-width="2" x="0" y="0" width="60" height="60.21073758153537" class="image-rect"></rect> <svg x="0" y="0" width="60" height="60.21073758153537" filtersec="colorsb5699150655" class="image-svg-svg primary" style="overflow: visible;"><svg xmlns="http://www.w3.org/2000/svg" viewBox="0 0 99.6500015258789 100"><title>资源 212</title><path fill="#333" d="M0 0v36.8l24.16 24.71v-36.8L0 0z"></path><path fill="#3c73f4" d="M24.16 24.71h74.69L74.14 0H0l24.16 24.71z"></path><path fill="#333" d="M99.65 100V63.2L75.49 38.49v36.8L99.65 100z"></path><path fill="#3c73f4" d="M75.49 75.29H.8L25.51 100h74.14L75.49 75.29z"></path></svg></svg> <!----></g></g> <g transform="translate(67,2.1141204833984375)"><g data-gra="path-name" fill-rule="" class="tp-name iconsvg-namesvg" transform="translate(0,0)"><g transform="scale(1)"><g><path d="M38.5-34.8L38.5-34.8 38.5-31.29Q38.5-31.11 38.5-31.11L38.5-31.11Q36.56-31.11 9.67-30.94L9.67-30.94Q4.04-30.76 2.46-30.76L2.46-30.76 2.46-34.45Q3.52-34.45 30.59-34.8L30.59-34.8Q37.27-34.8 38.5-34.8ZM24.26-29.71L24.26-29.71 24.26-27.95 40.08-27.95 40.08-24.43Q40.08-24.43 40.08-24.43L40.08-24.43 24.26-24.43 24.26-22.15 35.33-22.15Q36.74-22.15 37.79-20.74L37.79-20.74Q38.5-19.86 38.5-18.81L38.5-18.81 38.5-7.21 24.26-7.21 24.26-5.1 38.67-5.1 38.67-1.41 24.26-1.41 24.26 1.93 40.61 1.93 40.61 5.45 0.35 5.45 0.35 1.93 16.7 1.93 16.7-1.41 2.29-1.41 2.29-5.1 16.7-5.1 16.7-7.21 2.46-7.21 2.46-22.15 9.84-22.15 9.84-16.7 16.7-16.7 16.7-18.46 11.07-18.46 11.07-22.15 16.7-22.15 16.7-24.43 0.88-24.43Q0.88-24.43 0.88-24.43L0.88-24.43 0.88-27.95 16.7-27.95 16.7-29.71Q17.93-29.71 24.26-29.71ZM29.53-18.46L24.26-18.46 24.26-16.7 31.11-16.7 31.11-16.88Q31.11-17.93 30.06-18.46L30.06-18.46Q29.71-18.46 29.53-18.46L29.53-18.46ZM16.7-13.01L9.84-13.01 9.84-10.72 16.7-10.72 16.7-13.01ZM31.11-13.01L24.26-13.01 24.26-10.72 31.11-10.72 31.11-13.01ZM62.75-32.17L61.88-35.16 69.26-35.16Q69.26-35.16 69.79-33.22L69.79-33.22Q70.31-32.17 70.31-32.17L70.31-32.17 84.55-32.17 84.55-28.48 53.96-28.48 53.96-5.8Q53.96 0 52.03 4.22L52.03 4.22Q51.68 4.75 51.33 5.45L51.33 5.45 43.95 5.45Q46.58 0.88 46.58-5.8L46.58-5.8 46.58-32.17Q49.04-32.17 50.63-32.17L50.63-32.17Q55.72-32.17 60.64-32.17L60.64-32.17 62.75-32.17 62.75-32.17ZM65.74-26.37L65.74-26.37 72.95-26.37Q73.13-26.37 73.13-26.37L73.13-26.37 73.13-20.04 84.2-20.04 84.2-16.35Q84.2-16.35 84.2-16.35L84.2-16.35 70.14-16.35 69.61-15.12 69.61-15.12 76.29-15.12Q76.46-14.94 76.82-13.89L76.82-13.89Q84.2 4.04 84.73 5.45L84.73 5.45 77.34 5.45 69.26-14.24 69.26-14.24 61.35 5.45 53.96 5.45 62.58-15.82Q62.75-16.35 62.75-16.35L62.75-16.35 54.49-16.35Q54.32-16.35 54.32-16.35L54.32-16.35 54.32-20.04 65.57-20.04 65.57-26.37Q65.57-26.37 65.74-26.37ZM92.99-30.41L92.99-35.16 98.26-35.16 98.26-30.41 103.01-30.41 103.01-26.89 98.26-26.89 98.26 5.45 92.99 5.45 92.99-26.89 88.24-26.89 88.24-30.41 92.99-30.41ZM113.73-27.07L113.73-35.16 119.88-35.16 119.88-27.07 128.5-27.07 128.5-23.55 119.88-23.55 119.88-14.77 113.73-14.77 113.73-23.55 105.12-23.55Q105.12-23.55 105.12-23.55L105.12-23.55 105.12-27.07 113.73-27.07ZM105.12-34.45L105.12-34.45 110.74-34.45Q112.32-28.3 112.32-28.13L112.32-28.13 106.7-28.13Q106.52-28.13 106.17-30.23L106.17-30.23Q105.12-34.1 105.12-34.45ZM121.29-28.13L122.87-34.45 128.5-34.45 126.91-28.13 121.29-28.13ZM88.77-23.38L88.77-23.38 92.29-23.38Q92.11-23.2 92.11-23.2L92.11-23.2 91.41 1.41Q91.41 2.99 91.41 3.87L91.41 3.87Q91.41 3.87 91.41 3.87L91.41 3.87 87.89 3.87Q87.89 3.52 88.77-23.38ZM99.14-23.38L99.14-23.38 102.48-23.38Q103.36 2.11 103.36 3.34L103.36 3.34 103.36 3.87 99.84 3.87Q99.84 3.87 99.84 3.69L99.84 3.69 99.14-20.74Q99.14-22.32 99.14-23.38ZM105.12-14.77L106.52-22.32 112.32-22.32Q111.27-17.23 110.74-14.77L110.74-14.77 105.12-14.77 105.12-14.77ZM122.87-14.77L121.29-22.32 126.91-22.32 128.5-14.77 122.87-14.77ZM105.64-12.3L105.64-14.06 113.03-14.06Q113.03-14.06 113.03-14.06L113.03-14.06 113.03-12.3 128.85-12.3Q128.85-12.3 128.85-12.13L128.85-12.13 128.85-8.61Q128.85-8.61 128.85-8.61L128.85-8.61 113.03-8.61 113.03-6.5Q113.03-5.1 114.61-4.39L114.61-4.39 116.72-2.81Q119.36-4.75 119.88-5.1L119.88-5.1Q120.23-5.8 120.23-6.15L120.23-6.15Q120.23-6.15 120.23-6.5L120.23-6.5 120.23-7.21Q120.23-7.38 120.41-7.38L120.41-7.38 127.79-7.38 127.79-5.1Q127.79-4.04 126.74-3.34L126.74-3.34 121.29 0.35 128.85 5.45 128.85 5.45 120.06 5.45 116.72 3.16 113.2 5.45 104.59 5.45 104.59 5.45Q106.7 4.04 112.15 0.18L112.15 0.18Q107.05-2.99 106.35-3.52L106.35-3.52Q105.64-4.22 105.64-5.1L105.64-5.1 105.64-8.61 104.59-8.61 104.59-12.3 105.64-12.3ZM131.84-14.77L137.46-35.16 144.84-35.16Q142.91-27.95 142.91-27.77L142.91-27.77 142.91 5.45 135.53 5.45 135.53-14.77 131.84-14.77ZM154.69-35.16L154.69-35.16 162.07-35.16Q162.77-32.17 162.77-32.17L162.77-32.17 172.79-32.17 172.79-28.48 145.2-28.48 145.2-32.17 155.39-32.17 155.39-32.17Q154.69-34.98 154.69-35.16ZM146.07-20.92L146.07-24.43 171.91-24.43 171.91-20.74 146.07-20.74Q146.07-20.74 146.07-20.92L146.07-20.92ZM146.07-18.11L146.07-18.11 171.91-18.11Q171.91-18.11 171.91-18.11L171.91-18.11 171.91-14.59Q171.91-14.59 171.91-14.59L171.91-14.59 146.07-14.59Q146.07-14.59 146.07-14.59L146.07-14.59 146.07-18.11Q146.07-18.11 146.07-18.11ZM146.43 5.45L146.43-10.72 153.81-10.72 153.81 1.76 164.18 1.76 164.18-5.45Q164.18-6.68 162.77-7.03L162.77-7.03Q162.6-7.03 162.42-7.03L162.42-7.03 155.21-7.03 155.21-10.72 168.22-10.72Q170.16-10.72 171.21-8.79L171.21-8.79Q171.56-8.09 171.56-7.21L171.56-7.21 171.56 5.45Q160.84 5.45 153.11 5.45L153.11 5.45 146.43 5.45Z" transform="translate(-0.3500000238418579, 35.15999984741211)"></path></g> <!----> <!----> <!----> <!----> <!----> <!----> <!----></g></g> <g data-gra="path-slogan" fill-rule="" class="tp-slogan iconsvg-slogansvg" fill="#333" transform="translate(25.424991607666016,46.61000061035156)"><!----> <!----> <g transform="scale(1, 1)"><g transform="scale(1)"><path d="M8.06-6.05L8.06-6.05L6.94-6.05Q6.52-7.78 4.55-7.83L4.55-7.83Q1.83-7.69 1.73-4.36L1.73-4.36Q1.73-0.80 4.59-0.80L4.59-0.80Q6.56-0.84 7.03-3.19L7.03-3.19L8.16-3.19Q7.64 0.05 4.36 0.14L4.36 0.14Q0.61 0 0.52-4.31L0.52-4.31Q0.70-8.63 4.55-8.81L4.55-8.81Q7.59-8.72 8.06-6.05ZM10.69-5.06L15.19-5.06L15.19-8.58L16.36-8.58L16.36 0L15.19 0L15.19-3.98L10.69-3.98L10.69 0L9.52 0L9.52-8.58L10.69-8.58L10.69-5.06ZM24.94-4.27L24.94-4.27Q24.75-7.64 21.94-7.83L21.94-7.83Q19.08-7.69 18.94-4.27L18.94-4.27Q19.08-0.94 21.94-0.80L21.94-0.80Q24.75-0.98 24.94-4.27ZM26.11-4.27L26.11-4.27Q25.83 0 21.94 0.14L21.94 0.14Q18 0 17.72-4.27L17.72-4.27Q17.95-8.72 21.94-8.81L21.94-8.81Q25.83-8.67 26.11-4.27ZM28.88-8.58L33.19-1.64L33.19-8.58L34.31-8.58L34.31 0L33 0L28.64-6.94L28.59-6.94L28.59 0L27.47 0L27.47-8.58L28.88-8.58ZM42.52-3.61L39.89-3.61L39.89-4.59L43.64-4.59L43.64 0L42.89 0L42.61-1.08Q41.63 0.09 39.80 0.14L39.80 0.14Q38.06 0.14 37.13-0.75L37.13-0.75Q35.72-2.06 35.77-4.36L35.77-4.36Q36.09-8.63 39.84-8.81L39.84-8.81Q43.03-8.63 43.50-6L43.50-6L42.38-6Q41.91-7.78 39.80-7.83L39.80-7.83Q37.13-7.64 36.98-4.31L36.98-4.31Q36.98-0.75 39.84-0.75L39.84-0.75Q40.88-0.75 41.63-1.31L41.63-1.31Q42.56-2.06 42.52-3.61L42.52-3.61ZM50.44-1.08L49.55-1.78L50.16-2.48L51.23-1.64Q52.22-2.63 52.22-4.27L52.22-4.27Q52.03-7.64 49.22-7.83L49.22-7.83Q46.36-7.69 46.22-4.27L46.22-4.27Q46.36-0.94 49.22-0.80L49.22-0.80Q49.92-0.80 50.44-1.08L50.44-1.08ZM52.17-0.94L53.30-0.05L52.73 0.56L51.42-0.33Q50.58 0.14 49.22 0.14L49.22 0.14Q45.28 0 45-4.27L45-4.27Q45.23-8.72 49.22-8.81L49.22-8.81Q53.11-8.67 53.39-4.27L53.39-4.27Q53.34-2.20 52.17-0.94L52.17-0.94ZM54.94-8.58L56.11-8.58L56.11 0L54.94 0L54.94-8.58ZM59.48-8.58L63.80-1.64L63.80-8.58L64.92-8.58L64.92 0L63.61 0L59.25-6.94L59.20-6.94L59.20 0L58.08 0L58.08-8.58L59.48-8.58ZM73.13-3.61L70.50-3.61L70.50-4.59L74.25-4.59L74.25 0L73.50 0L73.22-1.08Q72.23 0.09 70.41 0.14L70.41 0.14Q68.67 0.14 67.73-0.75L67.73-0.75Q66.33-2.06 66.38-4.36L66.38-4.36Q66.70-8.63 70.45-8.81L70.45-8.81Q73.64-8.63 74.11-6L74.11-6L72.98-6Q72.52-7.78 70.41-7.83L70.41-7.83Q67.73-7.64 67.59-4.31L67.59-4.31Q67.59-0.75 70.45-0.75L70.45-0.75Q71.48-0.75 72.23-1.31L72.23-1.31Q73.17-2.06 73.13-3.61L73.13-3.61ZM79.36-8.58L80.53-8.58L80.53-1.03L84.89-1.03L84.89 0L79.36 0L79.36-8.58ZM92.81-4.27L92.81-4.27Q92.63-7.64 89.81-7.83L89.81-7.83Q86.95-7.69 86.81-4.27L86.81-4.27Q86.95-0.94 89.81-0.80L89.81-0.80Q92.63-0.98 92.81-4.27ZM93.98-4.27L93.98-4.27Q93.70 0 89.81 0.14L89.81 0.14Q85.88 0 85.59-4.27L85.59-4.27Q85.83-8.72 89.81-8.81L89.81-8.81Q93.70-8.67 93.98-4.27ZM101.02-3.19L101.02-8.58L102.19-8.58L102.19-3.05Q102.05 0.05 98.67 0.14L98.67 0.14Q95.53 0.05 95.39-2.86L95.39-2.86L95.39-8.58L96.56-8.58L96.56-3.19Q96.61-0.84 98.72-0.80L98.72-0.80Q101.02-0.84 101.02-3.19L101.02-3.19ZM110.72-8.58L107.81-4.41L110.86 0L109.41 0L107.06-3.52L104.72 0L103.31 0L106.41-4.41L103.50-8.58L104.95-8.58L107.11-5.30L109.31-8.58L110.72-8.58ZM112.13-8.58L113.30-8.58L113.30 0L112.13 0L112.13-8.58ZM116.67-8.58L120.98-1.64L120.98-8.58L122.11-8.58L122.11 0L120.80 0L116.44-6.94L116.39-6.94L116.39 0L115.27 0L115.27-8.58L116.67-8.58Z" transform="translate(-0.515625, 8.8125)"></path></g></g></g></g></g><defs v-gra="od"></defs></svg>